<?xml version="1.0" standalone="no"?>
<!DOCTYPE svg PUBLIC "-//W3C//DTD SVG 20010904//EN"
 "http://www.w3.org/TR/2001/REC-SVG-20010904/DTD/svg10.dtd">
<svg version="1.0" xmlns="http://www.w3.org/2000/svg"
 width="500.000000pt" height="500.000000pt" viewBox="0 0 500.000000 500.000000"
 preserveAspectRatio="xMidYMid meet">
<metadata>
Created by potrace 1.11, written by Peter Selinger 2001-2013
</metadata>
<g transform="translate(0.000000,500.000000) scale(0.100000,-0.100000)"
fill="#000000" stroke="none">
<path d="M3925 3282 c-305 -35 -586 -296 -651 -604 -92 -431 174 -837 611
-933 55 -13 289 -16 298 -5 2 3 115 167 252 365 137 198 272 394 300 435 80
116 79 111 56 183 -45 144 -105 243 -211 347 -170 167 -402 242 -655 212z
m320 -146 c181 -62 322 -188 397 -356 37 -83 42 -110 20 -110 -33 0 -133 -30
-190 -57 -267 -127 -413 -411 -368 -711 l8 -53 -77 2 c-376 10 -660 296 -658
664 0 242 143 473 360 584 147 74 354 90 508 37z"/>
<path d="M1692 2561 l2 -721 671 0 671 0 0 720 c-1 396 -3 720 -5 720 -3 0
-154 -113 -337 -251 l-332 -250 -323 244 c-178 134 -330 247 -337 251 -11 6
-13 -123 -10 -713z m405 266 l264 -199 275 206 c150 113 274 205 275 204 0 -2
2 -245 3 -540 l2 -538 -551 0 -550 0 -2 540 c-1 401 1 539 9 534 7 -4 130 -97
275 -207z"/>
<path d="M190 2509 l0 -669 58 -1 c61 0 1072 0 1134 1 46 0 51 -16 -69 206
l-94 174 25 25 c62 62 112 156 136 255 16 66 16 190 0 251 -49 185 -195 341
-375 399 -67 22 -87 23 -442 26 l-373 2 0 -669z m791 523 c182 -72 290 -223
291 -407 1 -136 -61 -261 -171 -347 l-35 -26 26 -49 c13 -26 48 -91 76 -144
29 -54 52 -99 52 -100 0 -3 -681 -3 -872 0 l-38 1 0 549 0 548 308 -1 c290 -2
310 -4 363 -24z"/>
</g>
</svg>
