<?xml version="1.0" encoding="utf-8"?>
<!-- Generator: Adobe Illustrator 19.0.0, SVG Export Plug-In . SVG Version: 6.00 Build 0)  -->
<svg version="1.1" id="Layer_1" xmlns="http://www.w3.org/2000/svg" xmlns:xlink="http://www.w3.org/1999/xlink" x="0px" y="0px"
	 viewBox="-197 320.9 200 200" style="enable-background:new -197 320.9 200 200;" xml:space="preserve">
<style type="text/css">
	.st0{fill:#E3E4E8;}
	.st1{fill:#FFFFFF;}
	.st2{fill:#DD272F;}
	.st3{fill:#ADADAD;}
</style>
<g>
	<circle class="st0" cx="-294" cy="741.8" r="100"/>
	<path class="st1" d="M-230.9,791.6h-126.2c-3.8,0-6.9-3.1-6.9-6.9v-136c0-3.8,3.1-6.9,6.9-6.9h126.2c3.8,0,6.9,3.1,6.9,6.9v136.1
		C-224,788.5-227.1,791.6-230.9,791.6z"/>
	<g>
		<circle class="st2" cx="-294" cy="677.6" r="26.6"/>
	</g>
	<g>
		<rect x="-326.5" y="737.9" class="st3" width="63.7" height="6.1"/>
		<rect x="-331.5" y="750.1" class="st3" width="73.7" height="6.1"/>
		<rect x="-317.5" y="761.7" class="st3" width="45.8" height="6.1"/>
		<rect x="-330.1" y="725.8" class="st3" width="71" height="6.1"/>
	</g>
	<g>
		<rect x="-326.5" y="785.9" class="st3" width="63.7" height="6.1"/>
		<rect x="-331.5" y="798.1" class="st3" width="73.7" height="6.1"/>
		<rect x="-317.5" y="809.7" class="st3" width="45.8" height="6.1"/>
		<rect x="-330.1" y="773.8" class="st3" width="71" height="6.1"/>
	</g>
</g>
<rect x="-297" y="662.8" class="st1" width="6" height="17.8"/>
<circle class="st1" cx="-294" cy="689.2" r="4"/>
<g>
	<path class="st1" d="M-197,420.9v100h100C-152.2,520.9-197,476.1-197,420.9z"/>
	<path class="st1" d="M-97,520.9H3v-100C3,476.1-41.8,520.9-97,520.9z"/>
	<path class="st1" d="M-97,337.6c-46,0-83.3,37.4-83.3,83.3s37.4,83.3,83.3,83.3s83.3-37.4,83.3-83.3S-51,337.6-97,337.6z
		 M-67.8,387.6c6.9,0,12.5,5.6,12.5,12.5c0,6.9-5.6,12.5-12.5,12.5c-6.9,0-12.5-5.6-12.5-12.5C-80.3,393.1-74.7,387.6-67.8,387.6z
		 M-126.2,387.6c6.9,0,12.5,5.6,12.5,12.5c0,6.9-5.6,12.5-12.5,12.5c-6.9,0-12.5-5.6-12.5-12.5
		C-138.7,393.1-133.1,387.6-126.2,387.6z M-97,470.9c-26.4,0-47.2-21.1-50-33.3h100C-49.8,449.9-70.9,470.9-97,470.9z"/>
	<path class="st1" d="M-97,320.9c55.2,0,100,44.8,100,100v-100H-97z"/>
	<path class="st1" d="M-97,320.9h-100v100C-197,365.7-152.2,320.9-97,320.9z"/>
</g>
</svg>
