<?xml version="1.0" encoding="utf-8"?>
<!-- Generator: Adobe Illustrator 19.0.0, SVG Export Plug-In . SVG Version: 6.00 Build 0)  -->
<svg version="1.1" id="Layer_1" xmlns="http://www.w3.org/2000/svg" xmlns:xlink="http://www.w3.org/1999/xlink" x="0px" y="0px"
	 viewBox="-285 408.9 24 24" style="enable-background:new -285 408.9 24 24;" xml:space="preserve">
<style type="text/css">
	.st0{fill:#FFFFFF;}
</style>
<path class="st0" d="M-275.4,408.9c-5.3,0-9.6,4.3-9.6,9.6v4.8c0,5.3,4.3,9.6,9.6,9.6s9.6-4.3,9.6-9.6v-4.8
	C-265.8,413.2-270.1,408.9-275.4,408.9z M-275.4,411.3c4,0,7.2,3.2,7.2,7.2v4.8c0,4-3.2,7.2-7.2,7.2s-7.2-3.2-7.2-7.2v-4.8
	C-282.6,414.4-279.4,411.3-275.4,411.3z M-275.4,413.7l-3.6,3.6h2.4v2.4h-2.4l3.6,3.6l3.6-3.6h-2.4v-2.4h2.4L-275.4,413.7z"/>
</svg>
