<?xml version="1.0" encoding="utf-8"?>
<!-- Generator: Adobe Illustrator 19.0.0, SVG Export Plug-In . SVG Version: 6.00 Build 0)  -->
<svg version="1.1" id="Layer_1" xmlns="http://www.w3.org/2000/svg" xmlns:xlink="http://www.w3.org/1999/xlink" x="0px" y="0px"
	 viewBox="-271 387.2 67.2 19.8" style="enable-background:new -271 387.2 67.2 19.8;" xml:space="preserve">
<style type="text/css">
	.st0{fill:#FFFFFF;}
</style>
<g id="XMLID_173_">
	<circle id="XMLID_171_" class="st0" cx="-228" cy="405.1" r="1.7"/>
	<path id="XMLID_168_" class="st0" d="M-232.6,406.2l-0.1-18.4l-9,6.5l-9-6.5l0.1,18.4H-232.6z M-241.7,396.3l7.4-5.3v13.6h-14.8
		V391L-241.7,396.3z"/>
	<path id="XMLID_165_" class="st0" d="M-222.1,405.8l0.3,0.7l0.7,0.2c2.4,0.6,5,0.2,7.2-1c2.1-1.3,3.8-3.2,4.6-5.7
		c0.8-2.5,0.5-5.2-0.6-7.6c-1.2-2.3-3.2-4-5.8-4.9c0,0,0,0-0.1,0c-2.4-0.7-5.1-0.5-7.4,0.5c-2.2,1.1-3.9,3-4.9,5.4l-0.3,0.7l0.3,0.7
		L-222.1,405.8z M-216.4,389.1C-216.3,389.1-216.3,389.1-216.4,389.1c4.3,1.4,6.7,6.1,5.4,10.4c-1.3,4.2-5.6,6.6-9.8,5.6
		c0-0.2,0.2-0.4,0.2-0.5c1.3-4.3-1.1-9-5.4-10.4c-0.2,0-0.4-0.1-0.5-0.2C-224.9,389.9-220.4,387.8-216.4,389.1z"/>
	<path id="XMLID_163_" class="st0" d="M-257.1,401.1c1.5-1.4,2.3-3.3,2.3-5.4c0-4.1-3.4-7.5-7.5-7.5h-8.7v18h16.6L-257.1,401.1z
		 M-269.3,389.7h7.1c3.2,0,5.9,2.6,5.9,5.9c0,1.8-0.8,3.5-2.2,4.6l-0.5,0.4l2.1,3.9h-12.3v-14.8H-269.3z"/>
</g>
</svg>
